# xmcd
# 
# Track frame offsets:
#     150
#     14445
#     28538
#     45953
# 
# Disc length: 1064
# 
# Revision: 0
# Processed by: cddbd v1.5.2PL0 Copyright (c) Steve Scherf et al.
# Submitted via: fre:ac v1.0.17
# 
DISCID=22042604
DTITLE=Sonic Boom SIx - Turbo EP
DYEAR=2003
DGENRE=
TTITLE0=Blood for Oil
TTITLE1=People ack like they don't know
TTITLE2=The devil made me do it
TTITLE3=Silent majority
EXTD=
EXTT0=
EXTT1=
EXTT2=
EXTT3=
PLAYORDER=
